<svg width="24" height="24" viewBox="0 0 24 24" fill="none" xmlns="http://www.w3.org/2000/svg">
<path d="M7.06592 20.7501C7.06621 20.4186 7.1981 20.1009 7.43258 19.8667L13.8259 13.4734C14.0194 13.2799 14.1729 13.0502 14.2777 12.7974C14.3824 12.5446 14.4363 12.2737 14.4363 12.0001C14.4363 11.7264 14.3824 11.4555 14.2777 11.2027C14.1729 10.9499 14.0194 10.7202 13.8259 10.5267L7.44092 4.13756C7.21322 3.9018 7.08723 3.58605 7.09008 3.2583C7.09292 2.93056 7.22438 2.61704 7.45614 2.38528C7.68791 2.15352 8.00142 2.02206 8.32917 2.01921C8.65691 2.01636 8.97267 2.14236 9.20842 2.37005L15.5934 8.75422C16.4519 9.61444 16.9341 10.7801 16.9341 11.9955C16.9341 13.2108 16.4519 14.3765 15.5934 15.2367L9.20009 21.6301C9.02552 21.8047 8.80312 21.9238 8.56096 21.9722C8.31879 22.0206 8.06772 21.9962 7.83941 21.9021C7.6111 21.8079 7.41579 21.6483 7.27813 21.4433C7.14047 21.2382 7.06663 20.997 7.06592 20.7501Z" fill="#94A3B8"/>
</svg>
