<svg width="24" height="24" viewBox="0 0 24 24" fill="none" xmlns="http://www.w3.org/2000/svg">
<path d="M16.9341 3.25411C16.9338 3.58552 16.8019 3.90325 16.5675 4.13744L10.1741 10.5308C9.98061 10.7242 9.8271 10.9539 9.72237 11.2067C9.61764 11.4595 9.56373 11.7305 9.56373 12.0041C9.56373 12.2777 9.61764 12.5487 9.72237 12.8015C9.8271 13.0543 9.98061 13.284 10.1741 13.4774L16.5591 19.8624C16.7868 20.0982 16.9128 20.4139 16.91 20.7417C16.9071 21.0694 16.7757 21.383 16.5439 21.6147C16.3121 21.8465 15.9986 21.9779 15.6709 21.9808C15.3431 21.9836 15.0274 21.8576 14.7916 21.6299L8.40662 15.2499C7.54809 14.3897 7.06592 13.224 7.06592 12.0087C7.06592 10.7934 7.54809 9.62766 8.40662 8.76744L14.8 2.36994C14.9748 2.19501 15.1976 2.07587 15.4401 2.02759C15.6827 1.97931 15.9341 2.00407 16.1626 2.09872C16.391 2.19338 16.5863 2.35368 16.7236 2.55935C16.861 2.76501 16.9342 3.0068 16.9341 3.25411Z" fill="#94A3B8"/>
</svg>
