<svg width="44" height="44" viewBox="0 0 44 44" fill="none" xmlns="http://www.w3.org/2000/svg">
<rect width="44" height="44" rx="22" fill="#3559B2"/>
<path d="M12 24C13.1046 24 14 23.1046 14 22C14 20.8954 13.1046 20 12 20C10.8954 20 10 20.8954 10 22C10 23.1046 10.8954 24 12 24Z" fill="white"/>
<path d="M22 24C23.1046 24 24 23.1046 24 22C24 20.8954 23.1046 20 22 20C20.8954 20 20 20.8954 20 22C20 23.1046 20.8954 24 22 24Z" fill="white"/>
<path d="M32 24C33.1046 24 34 23.1046 34 22C34 20.8954 33.1046 20 32 20C30.8954 20 29.9999 20.8954 29.9999 22C29.9999 23.1046 30.8954 24 32 24Z" fill="white"/>
</svg>
